#N canvas 1052 333 709 417 10;
#X obj 202 150 btrack~;
#X obj 115 16 adc~;
#X obj 182 37 env~;
#X floatatom 182 64 5 0 0 0 - - -, f 5;
#X obj 115 51 +~;
#X obj 199 190 bng 15 250 50 0 empty empty empty 17 7 0 10 -262144
-1 -1;
#X floatatom 250 190 5 0 0 0 - - -, f 5;
#X obj 97 242 drumboy~;
#X obj 94 274 *~ 0.2;
#X obj 90 318 dac~;
#X obj 358 155 else/pimp~ 2;
#X obj 316 160 * 2;
#X obj 305 271 /;
#X msg 304 243 60000;
#X floatatom 330 354 5 0 0 0 - - -, f 5;
#X obj 282 306 t b f;
#X msg 282 329 1000;
#X obj 281 356 /;
#X floatatom 281 379 5 0 0 0 - - -, f 5;
#X msg 388 113 0;
#X obj 455 256 nbx 8 14 -1e+37 1e+37 0 0 empty empty empty 0 -8 0 10
-228856 -1 -1 0.818852 256;
#N canvas 1046 366 123 217 snapshot~ 0;
#X obj 29 107 snapshot~;
#X obj 46 53 loadbang;
#X obj 29 146 outlet;
#X obj 29 25 inlet~;
#X obj 46 79 metro 1;
#X connect 0 0 2 0;
#X connect 1 0 4 0;
#X connect 3 0 0 0;
#X connect 4 0 0 0;
#X restore 455 227 pd snapshot~;
#X obj 416 189 vsl 20 90 0 1 0 0 dsfsk sfg empty 0 -9 0 10 -228856
-1 -1 7288 1;
#X text 356 227 phase =>;
#X text 405 267 0;
#X obj 539 182 else/trig2bang~;
#X obj 557 215 bng 15 250 50 0 empty empty empty 17 7 0 10 -262144
-1 -1;
#X obj 625 221 drumboy~;
#X obj 618 297 dac~;
#X floatatom 368 77 5 0 0 0 - - -, f 5;
#X msg 101 107 on;
#X msg 102 137 off;
#X msg 221 87 fixtempo \$1;
#X msg 222 117 unfixtempo;
#X obj 303 216 t b f f;
#X obj 267 50 f;
#X obj 269 20 bng 15 250 50 0 empty empty empty 17 7 0 10 -262144 -1
-1;
#X msg 319 56 fixtempo 90;
#X floatatom 676 250 5 0 0 0 - - -, f 5;
#X obj 622 253 *~ 0;
#X obj 190 102 bng 15 250 50 0 empty empty empty 17 7 0 10 -262144
-1 -1;
#X msg 62 59 countin;
#X obj 433 360 midiout;
#X msg 433 333 248;
#X obj 359 125 * 24;
#X floatatom 474 333 5 0 0 0 - - -, f 5;
#X connect 0 0 5 0;
#X connect 0 0 7 0;
#X connect 0 0 19 0;
#X connect 0 1 6 0;
#X connect 0 1 34 0;
#X connect 1 0 4 0;
#X connect 1 1 4 1;
#X connect 2 0 3 0;
#X connect 4 0 2 0;
#X connect 4 0 0 0;
#X connect 7 0 8 0;
#X connect 8 0 9 0;
#X connect 10 0 21 0;
#X connect 10 1 25 0;
#X connect 12 0 14 0;
#X connect 12 0 15 0;
#X connect 13 0 12 0;
#X connect 15 0 16 0;
#X connect 15 1 17 1;
#X connect 16 0 17 0;
#X connect 17 0 18 0;
#X connect 17 0 44 0;
#X connect 19 0 10 1;
#X connect 20 0 22 0;
#X connect 21 0 20 0;
#X connect 25 0 26 0;
#X connect 25 0 27 0;
#X connect 25 0 43 0;
#X connect 27 0 39 0;
#X connect 29 0 44 1;
#X connect 30 0 0 0;
#X connect 31 0 0 0;
#X connect 32 0 0 0;
#X connect 33 0 0 0;
#X connect 34 0 13 0;
#X connect 34 1 12 1;
#X connect 34 2 35 1;
#X connect 35 0 32 0;
#X connect 36 0 35 0;
#X connect 37 0 0 0;
#X connect 38 0 39 1;
#X connect 39 0 28 1;
#X connect 40 0 0 0;
#X connect 41 0 0 0;
#X connect 43 0 42 0;
#X connect 44 0 10 0;
#X connect 45 0 42 1;
